<?xml version="1.0" encoding="utf-8"?>
<svg xmlns="http://www.w3.org/2000/svg" style="margin: auto; display: block; shape-rendering: auto;" width="271" height="60" preserveAspectRatio="xMidYMid">
<style type="text/css">
  text {
    text-anchor: middle; font-size: 50px; opacity: 0;
  }
</style>
<g style="transform-origin: 135.5px 30px 0px; transform: scale(1.51515);">
<g transform="translate(135.5,30)">
  <g transform="translate(-3,-4)"><g class="path" style="transform: matrix(1, 0, 0, 1, 0, 14.925); opacity: 0.05; transform-origin: -78.9633px -3.77302px 0px; animation: 1s linear 0s 1 normal forwards running float-btt-in-ef25a05e-3f2d-4407-80c0-1ec20ec7ea58;"><path d="M15.65-5.67L15.65-5.67L15.65-5.67Q15.65-4.50 15.20-3.46L15.20-3.46L15.20-3.46Q14.76-2.43 13.99-1.66L13.99-1.66L13.99-1.66Q13.21-0.89 12.17-0.44L12.17-0.44L12.17-0.44Q11.13 0 9.96 0L9.96 0L2.64 0L2.64-23.11L9.96-23.11L9.96-23.11Q11.13-23.11 12.17-22.66L12.17-22.66L12.17-22.66Q13.21-22.22 13.99-21.45L13.99-21.45L13.99-21.45Q14.76-20.67 15.20-19.63L15.20-19.63L15.20-19.63Q15.65-18.59 15.65-17.42L15.65-17.42L15.65-5.67zM13.57-5.67L13.57-17.42L13.57-17.42Q13.57-18.19 13.28-18.86L13.28-18.86L13.28-18.86Q12.99-19.53 12.48-20.04L12.48-20.04L12.48-20.04Q11.97-20.54 11.30-20.83L11.30-20.83L11.30-20.83Q10.63-21.12 9.86-21.12L9.86-21.12L4.72-21.12L4.72-1.98L9.86-1.98L9.86-1.98Q10.63-1.98 11.30-2.27L11.30-2.27L11.30-2.27Q11.97-2.56 12.48-3.06L12.48-3.06L12.48-3.06Q12.99-3.56 13.28-4.23L13.28-4.23L13.28-4.23Q13.57-4.90 13.57-5.67L13.57-5.67" fill="#000000" stroke="none" stroke-width="none" transform="translate(-88.10830688476562,7.7819758707682265)" style="fill: rgb(0, 0, 0);"></path></g><g class="path" style="transform: matrix(1, 0, 0, 1, 0, 14.925); opacity: 0.05; transform-origin: -62.6683px -0.468024px 0px; animation: 1s linear 0.044s 1 normal forwards running float-btt-in-ef25a05e-3f2d-4407-80c0-1ec20ec7ea58;"><path d="M30.95 0L30.29 0L29.20-1.64L29.20-1.64Q28.52-0.76 27.51-0.22L27.51-0.22L27.51-0.22Q26.49 0.32 25.28 0.32L25.28 0.32L24.78 0.32L24.78 0.32Q23.78 0.32 22.90-0.06L22.90-0.06L22.90-0.06Q22.01-0.44 21.35-1.10L21.35-1.10L21.35-1.10Q20.69-1.76 20.31-2.64L20.31-2.64L20.31-2.64Q19.93-3.53 19.93-4.53L19.93-4.53L19.93-4.69L19.93-4.69Q19.93-5.69 20.31-6.57L20.31-6.57L20.31-6.57Q20.69-7.46 21.35-8.12L21.35-8.12L21.35-8.12Q22.01-8.78 22.90-9.16L22.90-9.16L22.90-9.16Q23.78-9.54 24.78-9.54L24.78-9.54L28.97-9.54L28.97-12.08L28.97-12.08Q28.97-12.68 28.75-13.20L28.75-13.20L28.75-13.20Q28.52-13.73 28.13-14.12L28.13-14.12L28.13-14.12Q27.75-14.50 27.22-14.73L27.22-14.73L27.22-14.73Q26.70-14.95 26.10-14.95L26.10-14.95L24.94-14.95L24.94-14.95Q24.35-14.95 23.82-14.73L23.82-14.73L23.82-14.73Q23.30-14.50 22.91-14.12L22.91-14.12L22.91-14.12Q22.53-13.73 22.30-13.20L22.30-13.20L22.30-13.20Q22.08-12.68 22.08-12.08L22.08-12.08L22.08-11.49L20.09-11.81L20.09-11.97L20.09-11.97Q20.09-12.97 20.47-13.86L20.47-13.86L20.47-13.86Q20.85-14.74 21.51-15.40L21.51-15.40L21.51-15.40Q22.17-16.06 23.06-16.44L23.06-16.44L23.06-16.44Q23.94-16.82 24.94-16.82L24.94-16.82L26.10-16.82L26.10-16.82Q27.10-16.82 27.99-16.44L27.99-16.44L27.99-16.44Q28.88-16.06 29.54-15.40L29.54-15.40L29.54-15.40Q30.20-14.74 30.57-13.86L30.57-13.86L30.57-13.86Q30.95-12.97 30.95-11.97L30.95-11.97L30.95 0zM28.97-4.42L28.97-7.99L24.78-7.99L24.78-7.99Q24.19-7.99 23.66-7.77L23.66-7.77L23.66-7.77Q23.14-7.54 22.75-7.15L22.75-7.15L22.75-7.15Q22.37-6.75 22.14-6.23L22.14-6.23L22.14-6.23Q21.91-5.70 21.91-5.11L21.91-5.11L21.91-4.42L21.91-4.42Q21.91-3.82 22.14-3.30L22.14-3.30L22.14-3.30Q22.37-2.77 22.75-2.38L22.75-2.38L22.75-2.38Q23.14-2.00 23.66-1.77L23.66-1.77L23.66-1.77Q24.19-1.55 24.78-1.55L24.78-1.55L26.10-1.55L26.10-1.55Q26.70-1.55 27.22-1.77L27.22-1.77L27.22-1.77Q27.75-2.00 28.13-2.38L28.13-2.38L28.13-2.38Q28.52-2.77 28.75-3.30L28.75-3.30L28.75-3.30Q28.97-3.82 28.97-4.42L28.97-4.42" fill="#000000" stroke="none" stroke-width="none" transform="translate(-88.10830688476562,7.7819758707682265)" style="fill: rgb(0, 0, 0);"></path></g><g class="path" style="transform: matrix(1, 0, 0, 1, 0, 14.925); opacity: 0.05; transform-origin: -48.5083px -0.468024px 0px; animation: 1s linear 0.088s 1 normal forwards running float-btt-in-ef25a05e-3f2d-4407-80c0-1ec20ec7ea58;"><path d="M45.94-16.50L40.09 0L39.11 0L33.26-16.50L35.24-16.50L39.54-4.00L39.61-3.14L39.67-4.00L43.96-16.50L45.94-16.50" fill="#000000" stroke="none" stroke-width="none" transform="translate(-88.10830688476562,7.7819758707682265)" style="fill: rgb(0, 0, 0);"></path></g><g class="path" style="transform: matrix(1, 0, 0, 1, 0, 14.925); opacity: 0.05; transform-origin: -38.2133px -14.003px 0px; animation: 1s linear 0.132s 1 normal forwards running float-btt-in-ef25a05e-3f2d-4407-80c0-1ec20ec7ea58;"><path d="M51.05-20.46L48.74-20.46L48.74-23.11L51.05-23.11L51.05-20.46" fill="#000000" stroke="none" stroke-width="none" transform="translate(-88.10830688476562,7.7819758707682265)" style="fill: rgb(0, 0, 0);"></path></g><g class="path" style="transform: matrix(1, 0, 0, 1, 0, 14.925); opacity: 0.05; transform-origin: -38.2133px -0.468024px 0px; animation: 1s linear 0.176s 1 normal forwards running float-btt-in-ef25a05e-3f2d-4407-80c0-1ec20ec7ea58;"><path d="M50.89 0L48.90 0L48.90-16.50L50.89-16.50L50.89 0" fill="#000000" stroke="none" stroke-width="none" transform="translate(-88.10830688476562,7.7819758707682265)" style="fill: rgb(0, 0, 0);"></path></g><g class="path" style="transform: matrix(1, 0, 0, 1, 0, 14.925); opacity: 0.05; transform-origin: -27.0883px -3.61302px 0px; animation: 1s linear 0.22s 1 normal forwards running float-btt-in-ef25a05e-3f2d-4407-80c0-1ec20ec7ea58;"><path d="M66.53 0L65.87 0L64.78-1.68L64.78-1.68Q64.10-0.76 63.08-0.22L63.08-0.22L63.08-0.22Q62.07 0.32 60.86 0.32L60.86 0.32L60.36 0.32L60.36 0.32Q59.36 0.32 58.48-0.06L58.48-0.06L58.48-0.06Q57.59-0.44 56.93-1.10L56.93-1.10L56.93-1.10Q56.27-1.76 55.89-2.64L55.89-2.64L55.89-2.64Q55.51-3.53 55.51-4.53L55.51-4.53L55.51-11.97L55.51-11.97Q55.51-12.97 55.89-13.86L55.89-13.86L55.89-13.86Q56.27-14.74 56.93-15.40L56.93-15.40L56.93-15.40Q57.59-16.06 58.48-16.44L58.48-16.44L58.48-16.44Q59.36-16.82 60.36-16.82L60.36-16.82L60.86-16.82L60.86-16.82Q61.97-16.82 62.92-16.37L62.92-16.37L62.92-16.37Q63.87-15.92 64.55-15.11L64.55-15.11L64.55-23.11L66.53-23.11L66.53 0zM64.55-4.42L64.55-12.08L64.55-12.08Q64.55-12.68 64.32-13.20L64.32-13.20L64.32-13.20Q64.10-13.73 63.71-14.12L63.71-14.12L63.71-14.12Q63.33-14.50 62.80-14.73L62.80-14.73L62.80-14.73Q62.28-14.95 61.68-14.95L61.68-14.95L60.36-14.95L60.36-14.95Q59.76-14.95 59.24-14.73L59.24-14.73L59.24-14.73Q58.72-14.50 58.33-14.12L58.33-14.12L58.33-14.12Q57.94-13.73 57.72-13.20L57.72-13.20L57.72-13.20Q57.49-12.68 57.49-12.08L57.49-12.08L57.49-4.42L57.49-4.42Q57.49-3.82 57.72-3.30L57.72-3.30L57.72-3.30Q57.94-2.77 58.33-2.38L58.33-2.38L58.33-2.38Q58.72-2.00 59.24-1.77L59.24-1.77L59.24-1.77Q59.76-1.55 60.36-1.55L60.36-1.55L61.68-1.55L61.68-1.55Q62.28-1.55 62.80-1.77L62.80-1.77L62.80-1.77Q63.33-2.00 63.71-2.38L63.71-2.38L63.71-2.38Q64.10-2.77 64.32-3.30L64.32-3.30L64.32-3.30Q64.55-3.82 64.55-4.42L64.55-4.42" fill="#000000" stroke="none" stroke-width="none" transform="translate(-88.10830688476562,7.7819758707682265)" style="fill: rgb(0, 0, 0);"></path></g><g class="path" style="transform: matrix(1, 0, 0, 1, 0, 14.925); opacity: 0.05; transform-origin: -2.8983px -3.77302px 0px; animation: 1s linear 0.264s 1 normal forwards running float-btt-in-ef25a05e-3f2d-4407-80c0-1ec20ec7ea58;"><path d="M92.01 0L89.61 0L83.34-9.86L80.49-9.86L80.49 0L78.41 0L78.41-23.11L85.74-23.11L85.74-23.11Q86.92-23.11 87.95-22.66L87.95-22.66L87.95-22.66Q88.98-22.22 89.75-21.45L89.75-21.45L89.75-21.45Q90.52-20.67 90.97-19.63L90.97-19.63L90.97-19.63Q91.41-18.59 91.41-17.42L91.41-17.42L91.41-15.55L91.41-15.55Q91.41-14.37 90.97-13.33L90.97-13.33L90.97-13.33Q90.52-12.29 89.75-11.52L89.75-11.52L89.75-11.52Q88.98-10.75 87.95-10.30L87.95-10.30L87.95-10.30Q86.92-9.86 85.74-9.86L85.74-9.86L92.01 0zM89.33-15.55L89.33-17.42L89.33-17.42Q89.33-18.19 89.04-18.86L89.04-18.86L89.04-18.86Q88.75-19.53 88.25-20.04L88.25-20.04L88.25-20.04Q87.75-20.54 87.08-20.83L87.08-20.83L87.08-20.83Q86.42-21.12 85.64-21.12L85.64-21.12L80.49-21.12L80.49-11.84L85.64-11.84L85.64-11.84Q86.42-11.84 87.08-12.13L87.08-12.13L87.08-12.13Q87.75-12.42 88.25-12.93L88.25-12.93L88.25-12.93Q88.75-13.44 89.04-14.11L89.04-14.11L89.04-14.11Q89.33-14.78 89.33-15.55L89.33-15.55" fill="#000000" stroke="none" stroke-width="none" transform="translate(-88.10830688476562,7.7819758707682265)" style="fill: rgb(0, 0, 0);"></path></g><g class="path" style="transform: matrix(1, 0, 0, 1, 0, 14.925); opacity: 0.05; transform-origin: 12.7117px -0.468024px 0px; animation: 1s linear 0.308s 1 normal forwards running float-btt-in-ef25a05e-3f2d-4407-80c0-1ec20ec7ea58;"><path d="M106.33-4.53L106.33-4.53L106.33-4.53Q106.33-3.53 105.95-2.64L105.95-2.64L105.95-2.64Q105.57-1.76 104.91-1.10L104.91-1.10L104.91-1.10Q104.25-0.44 103.37-0.06L103.37-0.06L103.37-0.06Q102.48 0.32 101.48 0.32L101.48 0.32L100.16 0.32L100.16 0.32Q99.16 0.32 98.27-0.06L98.27-0.06L98.27-0.06Q97.39-0.44 96.73-1.10L96.73-1.10L96.73-1.10Q96.07-1.76 95.69-2.64L95.69-2.64L95.69-2.64Q95.31-3.53 95.31-4.53L95.31-4.53L95.31-11.97L95.31-11.97Q95.31-12.97 95.69-13.86L95.69-13.86L95.69-13.86Q96.07-14.74 96.73-15.40L96.73-15.40L96.73-15.40Q97.39-16.06 98.27-16.44L98.27-16.44L98.27-16.44Q99.16-16.82 100.16-16.82L100.16-16.82L101.48-16.82L101.48-16.82Q102.48-16.82 103.37-16.44L103.37-16.44L103.37-16.44Q104.25-16.06 104.91-15.40L104.91-15.40L104.91-15.40Q105.57-14.74 105.95-13.86L105.95-13.86L105.95-13.86Q106.33-12.97 106.33-11.97L106.33-11.97L106.33-8.09L97.29-8.09L97.29-4.42L97.29-4.42Q97.29-3.82 97.52-3.30L97.52-3.30L97.52-3.30Q97.74-2.77 98.13-2.38L98.13-2.38L98.13-2.38Q98.52-2.00 99.04-1.77L99.04-1.77L99.04-1.77Q99.56-1.55 100.16-1.55L100.16-1.55L101.48-1.55L101.48-1.55Q102.08-1.55 102.60-1.77L102.60-1.77L102.60-1.77Q103.13-2.00 103.51-2.38L103.51-2.38L103.51-2.38Q103.90-2.77 104.12-3.30L104.12-3.30L104.12-3.30Q104.35-3.82 104.35-4.42L104.35-4.42L104.35-5.51L106.33-5.19L106.33-4.53zM104.35-9.64L104.35-12.08L104.35-12.08Q104.35-12.68 104.12-13.20L104.12-13.20L104.12-13.20Q103.90-13.73 103.51-14.12L103.51-14.12L103.51-14.12Q103.13-14.50 102.60-14.73L102.60-14.73L102.60-14.73Q102.08-14.95 101.48-14.95L101.48-14.95L100.16-14.95L100.16-14.95Q99.56-14.95 99.04-14.73L99.04-14.73L99.04-14.73Q98.52-14.50 98.13-14.12L98.13-14.12L98.13-14.12Q97.74-13.73 97.52-13.20L97.52-13.20L97.52-13.20Q97.29-12.68 97.29-12.08L97.29-12.08L97.29-9.64L104.35-9.64" fill="#000000" stroke="none" stroke-width="none" transform="translate(-88.10830688476562,7.7819758707682265)" style="fill: rgb(0, 0, 0);"></path></g><g class="path" style="transform: matrix(1, 0, 0, 1, 0, 14.925); opacity: 0.05; transform-origin: 23.8367px -14.003px 0px; animation: 1s linear 0.352s 1 normal forwards running float-btt-in-ef25a05e-3f2d-4407-80c0-1ec20ec7ea58;"><path d="M113.10-20.46L110.79-20.46L110.79-23.11L113.10-23.11L113.10-20.46" fill="#000000" stroke="none" stroke-width="none" transform="translate(-88.10830688476562,7.7819758707682265)" style="fill: rgb(0, 0, 0);"></path></g><g class="path" style="transform: matrix(1, 0, 0, 1, 0, 14.925); opacity: 0.05; transform-origin: 23.8417px -0.468024px 0px; animation: 1s linear 0.396s 1 normal forwards running float-btt-in-ef25a05e-3f2d-4407-80c0-1ec20ec7ea58;"><path d="M112.94 0L110.96 0L110.96-16.50L112.94-16.50L112.94 0" fill="#000000" stroke="none" stroke-width="none" transform="translate(-88.10830688476562,7.7819758707682265)" style="fill: rgb(0, 0, 0);"></path></g><g class="path" style="transform: matrix(1, 0, 0, 1, 0, 14.925); opacity: 0.05; transform-origin: 34.9617px -0.628024px 0px; animation: 1s linear 0.44s 1 normal forwards running float-btt-in-ef25a05e-3f2d-4407-80c0-1ec20ec7ea58;"><path d="M128.58 0L126.60 0L126.60-12.08L126.60-12.08Q126.60-12.68 126.38-13.20L126.38-13.20L126.38-13.20Q126.15-13.73 125.76-14.12L125.76-14.12L125.76-14.12Q125.38-14.50 124.85-14.73L124.85-14.73L124.85-14.73Q124.33-14.95 123.73-14.95L123.73-14.95L122.41-14.95L122.41-14.95Q121.82-14.95 121.29-14.73L121.29-14.73L121.29-14.73Q120.77-14.50 120.38-14.12L120.38-14.12L120.38-14.12Q120.00-13.73 119.77-13.20L119.77-13.20L119.77-13.20Q119.54-12.68 119.54-12.08L119.54-12.08L119.54 0L117.56 0L117.56-16.50L118.22-16.50L119.30-14.82L119.30-14.82Q119.98-15.74 121.00-16.28L121.00-16.28L121.00-16.28Q122.03-16.82 123.23-16.82L123.23-16.82L123.73-16.82L123.73-16.82Q124.73-16.82 125.62-16.44L125.62-16.44L125.62-16.44Q126.51-16.06 127.17-15.40L127.17-15.40L127.17-15.40Q127.83-14.74 128.21-13.86L128.21-13.86L128.21-13.86Q128.58-12.97 128.58-11.97L128.58-11.97L128.58 0" fill="#000000" stroke="none" stroke-width="none" transform="translate(-88.10830688476562,7.7819758707682265)" style="fill: rgb(0, 0, 0);"></path></g><g class="path" style="transform: matrix(1, 0, 0, 1, 0, 14.925); opacity: 0.05; transform-origin: 49.9517px -0.468024px 0px; animation: 1s linear 0.484s 1 normal forwards running float-btt-in-ef25a05e-3f2d-4407-80c0-1ec20ec7ea58;"><path d="M143.57 0L142.91 0L141.81-1.64L141.81-1.64Q141.14-0.76 140.12-0.22L140.12-0.22L140.12-0.22Q139.11 0.32 137.90 0.32L137.90 0.32L137.40 0.32L137.40 0.32Q136.40 0.32 135.51-0.06L135.51-0.06L135.51-0.06Q134.63-0.44 133.97-1.10L133.97-1.10L133.97-1.10Q133.31-1.76 132.93-2.64L132.93-2.64L132.93-2.64Q132.55-3.53 132.55-4.53L132.55-4.53L132.55-4.69L132.55-4.69Q132.55-5.69 132.93-6.57L132.93-6.57L132.93-6.57Q133.31-7.46 133.97-8.12L133.97-8.12L133.97-8.12Q134.63-8.78 135.51-9.16L135.51-9.16L135.51-9.16Q136.40-9.54 137.40-9.54L137.40-9.54L141.59-9.54L141.59-12.08L141.59-12.08Q141.59-12.68 141.36-13.20L141.36-13.20L141.36-13.20Q141.14-13.73 140.75-14.12L140.75-14.12L140.75-14.12Q140.36-14.50 139.84-14.73L139.84-14.73L139.84-14.73Q139.32-14.95 138.72-14.95L138.72-14.95L137.56-14.95L137.56-14.95Q136.96-14.95 136.44-14.73L136.44-14.73L136.44-14.73Q135.92-14.50 135.53-14.12L135.53-14.12L135.53-14.12Q135.14-13.73 134.92-13.20L134.92-13.20L134.92-13.20Q134.69-12.68 134.69-12.08L134.69-12.08L134.69-11.49L132.71-11.81L132.71-11.97L132.71-11.97Q132.71-12.97 133.09-13.86L133.09-13.86L133.09-13.86Q133.47-14.74 134.13-15.40L134.13-15.40L134.13-15.40Q134.79-16.06 135.67-16.44L135.67-16.44L135.67-16.44Q136.56-16.82 137.56-16.82L137.56-16.82L138.72-16.82L138.72-16.82Q139.72-16.82 140.60-16.44L140.60-16.44L140.60-16.44Q141.49-16.06 142.15-15.40L142.15-15.40L142.15-15.40Q142.81-14.74 143.19-13.86L143.19-13.86L143.19-13.86Q143.57-12.97 143.57-11.97L143.57-11.97L143.57 0zM141.59-4.42L141.59-7.99L137.40-7.99L137.40-7.99Q136.80-7.99 136.28-7.77L136.28-7.77L136.28-7.77Q135.75-7.54 135.37-7.15L135.37-7.15L135.37-7.15Q134.98-6.75 134.76-6.23L134.76-6.23L134.76-6.23Q134.53-5.70 134.53-5.11L134.53-5.11L134.53-4.42L134.53-4.42Q134.53-3.82 134.76-3.30L134.76-3.30L134.76-3.30Q134.98-2.77 135.37-2.38L135.37-2.38L135.37-2.38Q135.75-2.00 136.28-1.77L136.28-1.77L136.28-1.77Q136.80-1.55 137.40-1.55L137.40-1.55L138.72-1.55L138.72-1.55Q139.32-1.55 139.84-1.77L139.84-1.77L139.84-1.77Q140.36-2.00 140.75-2.38L140.75-2.38L140.75-2.38Q141.14-2.77 141.36-3.30L141.36-3.30L141.36-3.30Q141.59-3.82 141.59-4.42L141.59-4.42" fill="#000000" stroke="none" stroke-width="none" transform="translate(-88.10830688476562,7.7819758707682265)" style="fill: rgb(0, 0, 0);"></path></g><g class="path" style="transform: matrix(1, 0, 0, 1, 0, 14.925); opacity: 0.05; transform-origin: 62.8417px -0.628024px 0px; animation: 1s linear 0.528s 1 normal forwards running float-btt-in-ef25a05e-3f2d-4407-80c0-1ec20ec7ea58;"><path d="M154.37-14.61L152.38-14.61L152.38-14.61Q151.79-14.61 151.26-14.39L151.26-14.39L151.26-14.39Q150.74-14.16 150.35-13.78L150.35-13.78L150.35-13.78Q149.97-13.39 149.74-12.87L149.74-12.87L149.74-12.87Q149.52-12.34 149.52-11.75L149.52-11.75L149.52 0L147.53 0L147.53-16.50L148.19-16.50L149.27-14.82L149.27-14.82Q149.95-15.74 150.97-16.28L150.97-16.28L150.97-16.28Q152.00-16.82 153.21-16.82L153.21-16.82L154.37-16.82L154.37-14.61" fill="#000000" stroke="none" stroke-width="none" transform="translate(-88.10830688476562,7.7819758707682265)" style="fill: rgb(0, 0, 0);"></path></g><g class="path" style="transform: matrix(1, 0, 0, 1, 0, 14.925); opacity: 0.05; transform-origin: 72.1467px -2.61302px 0px; animation: 1s linear 0.572s 1 normal forwards running float-btt-in-ef25a05e-3f2d-4407-80c0-1ec20ec7ea58;"><path d="M164.82 0L163.02 0L163.02 0Q162.12 0 161.32-0.34L161.32-0.34L161.32-0.34Q160.52-0.68 159.93-1.27L159.93-1.27L159.93-1.27Q159.34-1.87 159.00-2.66L159.00-2.66L159.00-2.66Q158.65-3.45 158.65-4.35L158.65-4.35L158.65-14.61L155.69-14.61L155.69-16.50L158.65-16.50L158.65-20.46L160.63-20.79L160.63-16.50L164.82-16.50L164.82-14.61L160.63-14.61L160.63-4.25L160.63-4.25Q160.63-3.75 160.82-3.33L160.82-3.33L160.82-3.33Q161.00-2.90 161.33-2.58L161.33-2.58L161.33-2.58Q161.65-2.26 162.08-2.07L162.08-2.07L162.08-2.07Q162.52-1.89 163.02-1.89L163.02-1.89L164.82-1.89L164.82 0" fill="#000000" stroke="none" stroke-width="none" transform="translate(-88.10830688476562,7.7819758707682265)" style="fill: rgb(0, 0, 0);"></path></g><g class="path" style="transform: matrix(1, 0, 0, 1, 0, 14.925); opacity: 0.05; transform-origin: 85.2067px -0.468024px 0px; animation: 1s linear 0.616s 1 normal forwards running float-btt-in-ef25a05e-3f2d-4407-80c0-1ec20ec7ea58;"><path d="M178.83 0L167.80 0L167.80-0.89L176.12-14.61L168.13-14.61L168.13-16.50L178.83-16.50L178.83-15.61L170.51-1.89L178.83-1.89L178.83 0" fill="#000000" stroke="none" stroke-width="none" transform="translate(-88.10830688476562,7.7819758707682265)" style="fill: rgb(0, 0, 0);"></path></g></g>
</g>
</g>
<style id="float-btt-in-ef25a05e-3f2d-4407-80c0-1ec20ec7ea58" data-anikit="">@keyframes float-btt-in-ef25a05e-3f2d-4407-80c0-1ec20ec7ea58
{
  0% {
    animation-timing-function: cubic-bezier(0.2242,0.7499,0.3142,0.8148);
    transform: translate(0px,14.925px) rotate(0deg) scale(1,1) skewX(0deg) skewY(0deg);
    opacity: 0.05;
  }
  100% {
    transform: translate(0px,0px) rotate(0deg) scale(1,1) skewX(0deg) skewY(0deg);
    opacity: 1;
  }
}</style></svg>